<?xml version="1.0" encoding="UTF-8" standalone="no"?><!DOCTYPE svg PUBLIC "-//W3C//DTD SVG 1.1//EN" "http://www.w3.org/Graphics/SVG/1.1/DTD/svg11.dtd"><svg width="100%" height="100%" viewBox="0 0 3164 458" version="1.1" xmlns="http://www.w3.org/2000/svg" xmlns:xlink="http://www.w3.org/1999/xlink" xml:space="preserve" xmlns:serif="http://www.serif.com/" style="fill-rule:evenodd;clip-rule:evenodd;stroke-linejoin:round;stroke-miterlimit:2;"><g id="empanads"><path d="M40.027,295.268c-1.03,1.366 -2.432,2.475 -4.128,3.168c-5.082,2.077 -10.894,-0.363 -12.97,-5.444c-1.378,-3.177 -1.403,-7.062 1.706,-11.177c1.674,-2.216 6.797,-5.764 14.867,-8.994c12.376,-4.953 33.224,-10.725 54.425,-13.978c18.433,-2.828 37.111,-3.538 51.149,-0.596c11.026,2.311 19.47,7.187 24.729,13.77c8.995,11.285 12.056,23.067 10.962,34.829c26.141,-12.012 53.53,-21.655 73.541,-25.625c13.345,-2.648 24.061,-2.636 30.468,-0.462c8.521,2.637 15.264,10.493 19.454,20.908c6.49,-3.067 13.497,-5.814 20.666,-8.037c21.256,-6.592 43.65,-8.568 58.334,-2.136c5.115,2.035 10.262,7.186 14.2,15.228c6.199,12.66 10.738,34.418 9.967,53.764c-0.263,6.578 -0.237,13.195 -2.666,18.308c-4.469,9.408 -9.932,13.256 -15.819,16.185c-3.403,1.694 -6.067,3.308 -9.467,2.362c-1.123,-0 -2.035,-0.912 -2.035,-2.036c-0,-1.123 0.912,-2.035 2.035,-2.035c5.549,-2.396 1.846,-8.96 0.418,-19.175c-0.149,-1.067 -0.436,-2.06 -0.405,-3.191c0.242,-9.016 1.53,-19.644 0.584,-29.755c-0.732,-7.829 -1.98,-15.294 -3.984,-21.149c-0.951,-2.781 -4.363,-5.168 -3.164,-6.556c-10.424,-3.75 -25.629,-0.749 -39.958,4.348c-8.678,3.087 -17.042,7.151 -23.913,11.535l-0.009,0.698c-0.622,22.74 -11.693,43.976 -25.407,49.029c-4.48,1.651 -8.44,0.888 -11.971,-0.948c-2.527,-1.313 -8.28,-6.189 -8.19,-16.063c0.053,-5.817 1.95,-17.43 4.445,-26.07c2.093,-7.249 5.058,-12.762 6.891,-14.708c1.76,-1.873 3.866,-3.776 6.266,-5.675c-0.344,-1.984 -0.852,-3.854 -1.534,-5.558c-0.756,-1.891 -1.229,-3.848 -2.84,-4.39c-4.483,-1.399 -12.323,0.477 -22.151,3.067c-17.846,4.704 -40.515,13.789 -62.233,24.42c-11.482,5.62 -22.687,11.695 -32.716,17.857c-11.721,14.106 -26.285,26.639 -36.953,35.783c-2.105,4.153 -5.61,5.604 -6.642,6.098c-4.937,2.361 -11.174,3.291 -17.117,-2.776c-0.824,-0.841 -2.617,-2.617 -3.662,-5.921c-0.286,-0.905 -0.646,-3.001 -0.715,-5.112l-0.011,0.405l0.011,-0.535c-0.038,-1.194 0.025,-2.384 0.249,-3.359l0.082,-0.297c0.995,-6.011 4.236,-12.829 10.245,-19.69c8.071,-9.216 21.955,-19.539 38.667,-29.47c1.716,-2.309 3.294,-4.662 4.699,-7.049c5.97,-10.141 8.789,-21.007 1.074,-31.502c-4.458,-6.09 -15.198,-7.044 -27.355,-7.398c-23.838,-0.694 -53.144,4.825 -70.719,10.242c-3.118,0.962 -7.079,1.567 -9.532,2.373c-0.137,2.454 -0.667,4.162 -1.868,2.49c0.546,-0.711 0.991,-1.491 1.325,-2.317l0.088,-0.036l0.455,-0.137l0.008,-0.11l0.021,-1.732l-0.051,0.32c-0.08,0.308 -0.16,0.617 -0.241,0.925l-0.28,0.77c-1.384,0.511 -2.109,1.112 -1.605,1.934l0.28,0.383Zm249.921,60.938c-0.041,3.589 0.676,6.309 2.448,6.35c4.175,0.096 0.926,-3.476 -2.448,-6.35Zm7.156,-17.349l-1.104,1.236c0.236,-0.282 1.808,-0.972 1.12,-1.233l-0.016,-0.003Z" style="fill:#0b0c07;"/><path d="M520.252,320.936c6.919,-5.704 13.871,-11.66 19.896,-17.656c6.604,-6.572 12.126,-13.037 14.641,-19.323c5.114,-13.238 3.586,-19.275 -3.57,-20.93c-13.402,-3.1 -35.904,4.462 -49.675,7.004c-7.295,1.366 -12.732,3.007 -17.638,5.705c-4.897,2.694 -9.253,6.425 -14.466,11.792c-2.139,2.204 -5.665,2.256 -7.869,0.116c-2.204,-2.139 -2.256,-5.665 -0.116,-7.869c6.131,-6.316 11.323,-10.623 17.084,-13.794c5.837,-3.213 12.271,-5.273 20.951,-6.903c14.978,-2.854 39.457,-10.181 54.143,-7.239c13.252,2.655 21.803,11.761 13.706,36.585c-1.202,3.84 -3.2,7.833 -5.791,11.912l0.711,-0.317c32.503,-14.257 66.489,-25.071 82.658,-25.87c9.38,-0.463 15.225,2.811 17.783,6.187c3.701,4.553 6.102,14.704 6.741,26.087l0.011,0.289c36.685,-21.226 93.656,-33.128 117.235,-35.902c13.239,-1.843 22.475,4.808 28.55,16.268c7.968,15.033 8.835,41.302 9.061,51.218c0.168,6.25 0.784,20.498 0.826,27.379c3.487,0.177 9.954,3.686 -0.055,3.153l0.034,-0.649c0.022,-0.644 0.028,-1.495 0.021,-2.504c-1.743,-0.098 -2.741,0.641 -0.553,3.126l0.498,0.027l-0.027,0.513c7.297,7.935 -3.888,18.132 -14.391,17.879c-10.503,0.253 -21.69,-9.945 -14.39,-17.879l-0.027,-0.513l0.498,-0.027l-0.553,-3.126c-0.007,1.009 -0.001,1.86 0.021,2.504l0.034,0.649c-10.01,0.531 -3.543,-2.978 -0.055,-3.153c0.042,-6.881 0.658,-21.129 0.826,-27.379c0.138,-5.875 0.692,-18.88 -1.44,-30.312c-0.641,-3.436 -1.417,-6.742 -2.754,-9.46c-0.736,-1.496 -1.194,-3.281 -2.9,-3.072c-18.952,2.726 -61.315,12.593 -93.928,28.56c-11.925,5.838 -22.419,12.528 -29.613,20.039c-2.454,8.19 -7.479,21.482 -9.788,24.492c-3.666,4.781 -8.285,5.251 -11.002,5.416c-3.816,0.232 -13.981,-1.23 -14.637,-15.546c-0.011,-11.424 4.95,-22.375 13.733,-32.223c0.793,-4.253 1.473,-9.482 1.794,-14.706c0.367,-5.986 1.031,-12.011 0.176,-15.79c-2.677,0.191 -7.542,0.649 -11.576,1.565c-20.545,4.668 -52.361,17.134 -80.151,30.75c-15.764,7.724 -30.221,15.822 -40.396,23.261c-2.729,2.777 -5.198,5.413 -7.289,7.868c-2.439,2.827 -7.031,10.578 -8.693,11.713c-4.317,2.948 -8.267,1.921 -11.212,0.519c-2.112,-1.006 -5.852,-3.558 -6.112,-10.505c-0.102,-6.134 4.292,-14.775 14.215,-23.201c6.233,-5.294 14.83,-10.996 24.82,-16.728Zm-17.118,40.378c-0.257,0.265 -0.364,0.48 -0.107,0.58c0.23,0.088 0.167,-0.248 0.107,-0.58Z" style="fill:#0b0c07;"/><path d="M920.951,305.223c3.336,-8.717 6.528,-20.744 7.782,-31.875c1.182,-10.49 1.582,-20.296 -3.703,-24.88c-7.875,-6.442 -31.533,-0.199 -54.136,8.709c-23.286,9.176 -45.454,22.049 -49.238,30.734c-0.628,1.486 -2.345,2.182 -3.831,1.554c-1.486,-0.628 -2.183,-2.345 -1.555,-3.831c4.467,-10.91 34.881,-28.861 63.383,-39.725c22.306,-8.502 43.556,-11.765 51.82,-5.772c8.252,5.672 11.699,19.077 11.31,34.181c-0.089,3.475 -0.379,7.029 -0.827,10.566c3.646,-2.988 7.414,-5.804 11.248,-8.379c21.379,-14.36 44.431,-20.562 60.905,-11.581c8.588,4.468 15.51,17.7 20.072,33.172c3.091,10.484 3.682,26.794 5.987,34.631c9.791,-2.274 18.922,-8.684 28.201,-16.186c16.794,-13.579 33.603,-30.913 52.355,-42.173c9.141,-5.489 18.725,-9.629 28.915,-11.565c13.292,-2.83 27.227,6.908 38.367,24.063c10.439,16.074 19.574,38.192 25.429,53.209c1.301,3.337 3.067,6.143 3.317,8.706c0.296,3.047 -1.752,5.56 -1.752,5.56c0,-0 -1.613,0.15 -1.787,-0.339c-0.067,-0.186 -0.174,-0.296 -0.307,-0.353l0.009,0.094c2.988,4.38 2.614,6.261 3.045,7.974c0.359,1.428 -1.026,1.785 -1.132,2.739c-0.449,4.023 -4.181,1.543 -7.43,2.753c-1.966,0.731 -3.343,-2.296 -10.224,-6.289c-1.295,-0.753 -2.165,-1.025 -3.427,-2.419c-0.702,-0.776 -1.002,-1.927 -1.48,-3.034c-5.149,-11.914 -11.652,-33.729 -20.724,-50.848c-3.709,-6.997 -7.625,-13.251 -12.035,-17.257c-1.881,-1.71 -3.53,-3.389 -5.639,-3.01c-33.465,6.786 -58.037,43.072 -85.065,60.716c-9.772,6.379 -19.826,10.675 -30.309,11.878c-5.104,0.587 -13.193,-2.443 -16.998,-13.772c-3.073,-9.149 -5.132,-27.076 -9.052,-42.346c-2.103,-8.193 -3.612,-15.941 -8.029,-18.596c-11.037,-6.346 -26.318,0.16 -40.919,9.761c-10.86,7.142 -21.465,16.374 -29.768,25.534c-1.001,2.487 -1.992,4.593 -2.913,6.205c-4.19,7.278 -11.448,26.576 -14.595,30.306c-2.957,3.504 -6.4,3.794 -8.49,3.699c-2.601,-0.118 -9.226,-1.797 -9.415,-11.611c0.015,-9.516 9.079,-25.424 22.635,-40.903Zm287.021,48.337c-0.724,0.455 -1.536,0.888 -2.488,0.909c-0.98,0.021 -1.616,2.747 -1.616,2.747c-0,-0 2.193,-0.699 4.086,-3.473l0.018,-0.183Zm-167.449,-19.74c0.957,2.712 2.21,4.034 4,3.129c2.712,-1.37 -0.619,-2.549 -4,-3.129Z" style="fill:#0b0c07;"/><path d="M1296.9,292.398c1.409,0.655 2.432,2.026 2.583,3.684c1.607,14.92 0.44,29.66 -2.139,44.299c-3.737,21.206 -10.532,42.176 -16.296,63.103c-4.099,14.969 -7.784,22.836 -10.332,25.731c-3.638,4.134 -7.375,3.806 -10.289,2.696c-3.347,-1.274 -8.807,-11.528 -9.841,-27.374c-1.978,-30.317 4.405,-82.082 8.333,-91.149c16.316,-37.668 86.453,-71.421 149.079,-78.101c48.404,-5.163 91.569,6.307 104.493,41.083c14.047,36.176 1.965,56.992 -19.472,69.445c-27.464,15.956 -74.653,16.112 -103.61,16.672c-12.184,0.049 -24.848,0.919 -37.332,0.615c-9.111,-0.223 -18.128,-1.068 -26.844,-3.115c-4.117,-1.036 -14.206,-3.947 -16.482,-5.273c-11.223,-6.535 -6.691,-15.735 -2.414,-19.091c1.012,-0.795 3.315,-3.312 8.261,-2.983c1.794,0.66 3.448,1.322 5.035,1.965c-0.128,0.969 1.084,1.503 2.772,1.81l-0.233,-0.359l-0.367,-0.575l-2.172,-0.876l0.057,-0.244c0.407,-1.212 1.372,-0.014 2.115,1.12l1.772,0.714l1.479,0.563c2.228,0.203 4.536,0.254 5.612,0.501c7.157,1.742 14.576,2.441 22.069,2.685c12.259,0.399 24.705,-0.372 36.672,-0.324c26.209,0.507 68.995,3.035 94.414,-10.395c14.956,-7.902 22.036,-22.262 13.493,-47.325c-12.724,-35.449 -64.321,-38.669 -114.222,-27.536c-32.488,7.248 -64.714,21.041 -86.194,38.034Zm-6.436,5.487c-7.544,6.935 -13.236,14.327 -16.442,21.954c-3.454,8.202 -5.768,53.963 -6.086,82.196c0.263,-0.709 0.515,-1.442 0.754,-2.197c6.416,-20.374 13.917,-40.736 18.313,-61.464c2.826,-13.326 4.374,-26.79 3.461,-40.489Zm31.047,55.012l-6.293,2.551c3.694,-0.447 5.512,-1.789 6.293,-2.551Z" style="fill:#0b0c07;"/><path d="M1729.47,306.286c-2.272,2.297 -4.666,4.482 -7.153,6.562c-5.457,4.562 -11.358,8.617 -17.436,12.175c-10.99,6.425 -61.65,20.276 -98.416,20.68c-21.902,0.24 -38.801,-5.318 -42.889,-16.802c-12.653,-36.106 31.712,-69.824 82.055,-84.776c54.118,-16.074 112.406,-10.076 106.207,28.884c-0.055,0.376 -0.177,0.727 -0.36,1.036l0.538,0.451c0.262,0.2 0.07,0.63 0.22,1.018c0.201,10.836 -2.456,29.167 -0.464,43.995c0.879,6.545 1.988,12.752 8.022,14.503c7.018,2.111 35.797,1.953 59.37,3.664c5.625,0.408 10.88,1.163 15.612,1.732c2.88,0.346 5.585,0.317 7.875,1.008c10.229,3.083 13.961,7.876 13.542,8.861c-0,1.348 -1.095,2.442 -2.443,2.442c-0.803,0 -1.517,-0.389 -1.956,-0.994l0.273,0.88c-0,-0 -4.58,2.49 -10.079,3.616c-4.714,0.966 -10.73,0.847 -17.34,1.103c-26.551,1.027 -62.308,0.547 -70.648,-1.548c-11.984,-3.109 -19.101,-11.685 -22.472,-23.287c-2.156,-7.418 -2.444,-16.345 -2.058,-25.203Zm16.496,-36.082c2.604,-33.374 -50.008,-32.692 -97.689,-17.486c-44.013,14.035 -85.976,40.876 -74.317,72.447c1.238,3.392 4.693,5.305 9.164,6.729c9.191,2.925 22.465,3.027 36.766,1.736c32.445,-2.929 70.093,-13.292 79.127,-18.606c5.52,-3.244 10.881,-6.933 15.835,-11.089c4.879,-4.094 9.361,-8.642 13.193,-13.667c1.028,-1.348 2.121,-3.6 3.16,-6.099l0.252,-2.97c0.062,-0.986 0.124,-1.973 0.186,-2.96l0.085,-2.386c1.017,-0.091 3.082,-0.491 2.262,-0.094c-1.363,0.66 -0.616,0.578 0.304,0.44c0.747,-2.003 1.372,-3.649 1.804,-4.481c3.096,-5.963 7.126,-2.189 9.868,-1.514Zm-14.238,5.649c-0.579,0.056 -0.818,0.011 0.012,-0.339l-0.012,0.339Z" style="fill:#0b0c07;"/><path d="M1905.58,300.298c11.352,-13.013 25.832,-26.149 40.564,-36.479c24.616,-17.26 50.8,-25.458 68.942,-13.85c13.338,7.661 29.55,47.662 38.329,77.479c2.311,7.849 5.362,14.796 5.182,20.206c-0.176,5.329 -1.4,9.375 -3.011,12.244c8.528,15.092 -4.056,16.794 -19.724,-5.893c-1.562,-2.263 -2.117,-5.568 -3.04,-9.009c-6.95,-25.918 -13.081,-73.967 -25.516,-83.197c-14.057,-9.497 -34.549,-1.214 -54.015,12.273c-22.022,15.258 -41.918,38.483 -52.38,55.693l-2.097,3.543c-2.027,5.49 -3.753,12.774 -4.704,15.01c-2.699,6.341 -8.11,3.518 -9.896,1.916c-0.545,-0.49 -1.532,-2.049 -1.852,-5.331c-0.247,-5.453 1.95,-13.267 6.797,-21.977c2.629,-4.724 6.033,-9.749 10.027,-14.884c-0.362,-6.859 -3.617,-13.888 -6.849,-22.1c-0.72,-1.689 0.067,-3.645 1.756,-4.364c1.69,-0.72 3.646,0.067 4.365,1.757c2.803,6.104 5.458,11.638 7.122,16.963Z" style="fill:#0b0c07;"/><path d="M2318.03,310.208c-5.46,5.715 -11.249,11.438 -17.36,16.681c-5.129,4.401 -10.484,8.467 -16.062,11.93c-15.496,9.607 -62.01,26.063 -101.971,28.265c-31.116,1.715 -57.962,-5.861 -66.599,-28.003c-12.977,-33.775 0.786,-57.126 27.547,-72.579c49.986,-28.865 147.996,-28.338 178.822,-21.955c11.868,2.445 21.676,6.361 30.745,11.107c13.74,7.19 25.746,16.296 40.859,24.915c1.334,0.741 1.815,2.424 1.074,3.758c-0.74,1.333 -2.424,1.814 -3.757,1.074c-15.216,-8.228 -27.341,-17.036 -41.168,-23.86c-8.631,-4.259 -17.942,-7.714 -29.155,-9.736c-25.644,-4.592 -98.834,-3.802 -149.134,14.762c-33.641,12.416 -57.221,32.84 -43.108,67.483c6.884,17.178 28.821,20.232 53.041,18.744c37.245,-2.287 80.639,-17.417 95.056,-26.424c4.943,-3.084 9.679,-6.715 14.222,-10.63c7.006,-6.039 13.55,-12.757 19.657,-19.292c2.031,-2.237 6.14,-6.663 6.392,-11.423c0.08,-1.505 -1.052,-1.376 -1.027,-2.818c0.086,-4.945 3.923,-8.179 5.091,-9.679c3.068,-3.94 7.03,-3.815 9.346,-3.816c2.846,-0.001 9.417,1.831 10.359,12.363c0.662,24.974 -0.946,42.61 3.742,54.188c2.983,7.365 10.193,8.95 23.863,11.45c2.584,0.472 5.289,0.891 8.097,1.968c3.264,1.252 5,3.072 8.45,4.933c3.203,-0 5.804,2.6 5.804,5.803c-0,3.203 -2.601,5.804 -5.804,5.804c-3.495,1.884 -5.532,3.256 -8.891,4.432c-2.107,0.738 -4.065,1.016 -6.115,1.144c-18.98,1.181 -30.791,-5.565 -38.388,-12.152c-7.281,-6.315 -11.49,-14.803 -13.074,-26.103c-0.888,-6.331 -0.875,-13.742 -0.554,-22.334Zm1.251,-28.4l0.028,-0.733c-0.023,0.255 -0.032,0.499 -0.028,0.733Z" style="fill:#0b0c07;"/><g id="D"><path d="M2613.71,323.947l1.637,-0.483c4.681,-0.726 6.627,1.94 7.132,2.378c3.341,2.901 3.582,6.724 0.026,10.866c-0.452,0.526 -1.799,1.71 -4.329,2.538c-3.355,1.096 -16.177,3.437 -21.257,4.858l-39.75,11.508c-12.008,3.383 -68.877,13.437 -109.629,13.117c-17.684,-0.138 -32.506,-2.524 -40.449,-7.275c-5.563,-3.328 -8.662,-7.772 -9.405,-12.988c-6.731,-47.319 41.505,-85.205 96.457,-99.077c56.389,-14.235 117.562,-2.833 128.323,42.904c0.809,3.331 -1.238,6.692 -4.568,7.501c-3.331,0.809 -6.692,-1.239 -7.501,-4.569c-9.876,-39.427 -64.024,-44.88 -112.623,-31.872c-46.631,12.481 -90.166,42.47 -83.863,82.688c0.393,2.513 3.955,2.506 8.017,3.48c10.059,2.412 24.762,2.52 40.679,1.693c36.735,-1.908 79.76,-9.461 89.824,-12.32l40.328,-11.018c2.656,-0.62 8.605,-0.715 13.498,-1.165l2.487,-1.013l2.714,-0.997c0.547,-2.842 1.354,-4.171 2.252,-0.754c-0.769,0.238 -1.518,0.487 -2.252,0.754l-0.092,0.45l-0.127,0.823c1.717,-0.418 2.737,-1.021 2.508,-1.909l-0.037,-0.118Zm-0.44,14.249c0.555,0.229 1.24,0.425 2.077,0.554l-2.077,-0.554Z" style="fill:#0b0c07;"/><path d="M2684.62,38.898c0.249,0.045 0.507,0.135 0.776,0.266c2.401,1.174 -3.236,7.22 -4.621,9.165c-8.014,10.808 -13.671,23.948 -18.221,37.634c-4.692,14.113 -8.142,28.865 -10.528,42.849c-7.867,43.588 6.298,95.799 -2.388,137.656c-4.265,20.552 -13.836,38.1 -30.513,52.011c-8.939,7.457 -19.868,14.16 -34.101,19.026c-2.668,1.05 -5.687,-0.264 -6.737,-2.933c-1.05,-2.669 0.264,-5.688 2.933,-6.738c13.759,-6.154 24.072,-13.558 31.215,-22.448c5.387,-6.704 8.388,-14.29 10.725,-22.126c1.638,-5.496 2.346,-11.189 3.128,-17.051c1.784,-13.386 2.004,-27.666 1.168,-42.448c-1.871,-33.09 -7.011,-68.16 -2.257,-99.386c2.987,-18.539 7.305,-38.441 14.541,-56.589c5.194,-13.025 11.899,-25.118 20.078,-35.455c1.518,-1.857 3.864,-7.262 4.803,-8.317c3.583,-4.027 7.42,-4.818 9.789,-4.804c4.466,0.026 9.835,0.992 11.929,7.124c0.409,1.198 2.148,3.112 1.322,6.379c-1.265,2.393 -2.242,4.442 -3.041,6.185Zm-21.041,-0.966c2.905,-3.314 4.498,-4.205 6.116,-5.941c0.31,-0.333 -0.078,-0.974 -0.078,-0.974c0,0 -1.126,-0.53 -1.327,-0.051c-0.497,1.186 -3.164,2.427 -4.208,2.985c0.273,0.092 0.396,0.141 0.179,0.189c-0.835,0.185 -0.724,0.086 -0.179,-0.189c-0.503,-0.173 -1.52,-0.494 -1.861,-1.238c0.547,2.301 0.943,4.005 1.358,5.219Z" style="fill:#0b0c07;"/></g><path d="M2848.14,294.286c-0.957,0.322 -1.805,0.551 -2.471,0.669c-3.346,0.716 -6.364,3.243 -9.346,6.287c-8.55,8.725 -16,21.886 -22.396,28.653c-11.083,11.767 -61.939,30.71 -99.16,34.821c-25.342,2.798 -44.109,-3.447 -46.124,-16.688c-6.872,-45.397 40.999,-77.907 94.75,-91.936c35.686,-9.314 73.345,-10.809 96.168,-4.622c21.467,5.818 31.056,17.943 20.727,34.99c-1.157,2.042 -3.754,2.759 -5.796,1.602c-2.042,-1.158 -2.759,-3.755 -1.602,-5.797c4.761,-8.984 0.341,-14.868 -8.886,-18.297c-11.341,-4.213 -28.852,-4.853 -48.631,-3.202c-23.354,1.95 -49.856,7.326 -73.217,16.654c-35.573,14.204 -64.63,36.555 -59.704,68.495c0.443,2.876 3.462,3.776 7.158,4.609c9.167,2.067 22.749,0.89 37.383,-1.868c31.446,-5.925 67.821,-19.234 76.538,-28.532c6.405,-6.855 13.857,-20.144 22.42,-28.986c5.165,-5.332 10.806,-9.141 16.628,-10.422c2.468,-0.613 5.097,-5.154 7.212,-7.594c2.33,-2.687 4.732,-4.039 6.113,-4.609c2.996,-1.236 5.448,0.064 7.646,1.305c1.698,0.959 3.321,3.29 3.891,7.948c0.469,10.181 -1.006,20.414 -2.208,29.841c-1.032,8.091 -2.437,15.36 1.151,20.984c4.203,6.589 14.105,9.621 33.818,11.315c1.066,0.092 2.211,-0.07 3.268,0.304c3.294,1.166 4.461,3.138 7.711,5.197c2.037,0 3.691,1.654 3.691,3.691c0,2.037 -1.654,3.691 -3.691,3.691c-3.376,2.139 -4.805,3.961 -8.301,4.939c-1.18,0.33 -2.419,0.034 -3.589,0.015c-29.298,-0.478 -43.138,-8.72 -49.51,-18.382c-6.103,-9.254 -6.184,-21.379 -3.773,-34.715c0.61,-3.373 1.393,-6.833 2.132,-10.36Zm2.427,-15.562l0.058,-0.958c-0.041,0.338 -0.061,0.657 -0.058,0.958Z" style="fill:#0b0c07;"/><path d="M3119.33,345.881c1.14,-7.112 -2.802,-12.084 -9.407,-15.873c-7.901,-4.532 -18.665,-7.782 -31.048,-10.08c-49.182,-9.127 -121.083,-5.438 -151.778,-13.145c-11.071,-2.78 -17.774,-7.716 -20.154,-13.1c-12.827,-28.998 0.445,-47.49 25.737,-58.487c26.14,-11.366 66.995,-14.366 98.748,-11.96c19.381,1.469 35.272,5.051 42.666,7.998c3.661,1.472 6.675,2.133 7.624,3.659c0.94,1.511 1.381,1.4 1.016,2.573c-4.053,13.031 0.549,-4.352 -2.372,4.421c-0.377,1.132 0.288,1.764 -0.586,2.303c-0.447,0.276 -1.295,0.487 -2.422,0.629l-0.986,0.545l-0.314,0.157c0.363,0.583 -2.038,4.726 -2.112,2.345c-0.036,-1.146 -2.675,-1.077 -5.084,-1.814c-6.024,-1.831 -18.084,-2.738 -32.83,-3.545c-23.783,-1.303 -54.448,-1.566 -79.037,4.066c-24.862,5.694 -44.118,16.369 -33.917,40.068c0.474,1.098 2.15,1.249 4.015,1.927c5.835,2.121 14.268,3.448 24.362,4.333c43.946,3.853 116.294,0.349 155.86,13.192c25.724,8.35 38.914,23.532 34.021,46.743c-0.758,3.604 -5.685,10.015 -16.524,14.556c-20.305,8.505 -68.089,19.588 -105.371,25.831c-14.161,2.371 -26.814,3.9 -35.769,4.728c-1.122,0.103 -2.23,0.557 -3.196,0.262c-19.524,-5.967 -17.595,-15.603 -13.915,-15.926c0.231,-0.021 0.409,-0.119 0.599,-0.224c1.129,-3.128 4.174,-7.004 10.592,-10.491c1.278,-0.694 3,-0.527 4.714,-0.753c26.666,-3.516 83.375,-11.831 117.207,-20.479c7.06,-1.805 15.66,-2.902 19.661,-4.459Zm0.038,-0.013c1.84,-0.718 2.691,-1.536 1.948,-2.568c-0.905,-1.258 -1.545,0.825 -1.948,2.568Z" style="fill:#0b0c07;"/></g></svg>